<?xml version="1.0" encoding="UTF-8"?>
<svg id="Layer_1" xmlns="http://www.w3.org/2000/svg" version="1.1" viewBox="0 0 950 200">
  <!-- Generator: Adobe Illustrator 30.1.0, SVG Export Plug-In . SVG Version: 2.1.1 Build 136)  -->
  <defs>
    <style>
      .st0 {
        fill: #fff;
      }

      .st1 {
        fill: #e03035;
      }

      .st2 {
        fill: #012b3a;
      }
    </style>
  </defs>
  <path class="st2" d="M243.9,147.7c3.2,0,5.9,1.1,8.1,3.3,2.2,2.2,3.3,5,3.3,8.5s-1.1,6.1-3.3,8.3c-2.2,2.1-4.9,3.2-8.2,3.2s-5.4-.7-7.5-2c-2.1-1.4-3.5-3.3-4-5.7h-.2v15.8h-6.3v-30.6h6.4l-1,7.1h.5c.5-2.5,1.9-4.4,4.2-5.8,2.3-1.4,4.9-2,7.9-2h0ZM241.3,152.5c-2.2,0-4,.6-5.6,1.9-1.5,1.3-2.3,2.9-2.3,5s.8,3.7,2.3,4.9,3.4,1.9,5.6,1.9,4.2-.6,5.7-1.8c1.5-1.2,2.2-2.9,2.2-4.9s-.7-3.8-2.2-5c-1.5-1.3-3.3-1.9-5.7-1.9Z"/>
  <path class="st2" d="M271.9,170.9c-4.2,0-7.5-1.1-10-3.2-2.5-2.1-3.8-4.9-3.8-8.4s1.3-6.3,3.8-8.4c2.5-2.1,5.9-3.2,10-3.2s7.5,1.1,10.1,3.2c2.5,2.1,3.8,4.9,3.8,8.4s-1.3,6.3-3.8,8.4c-2.5,2.1-5.9,3.2-10.1,3.2ZM271.9,166.1c2.4,0,4.4-.6,5.8-1.9,1.5-1.3,2.2-2.9,2.2-4.9s-.7-3.7-2.2-5c-1.5-1.3-3.4-1.9-5.8-1.9s-4.3.6-5.8,1.9c-1.5,1.3-2.2,2.9-2.2,5s.7,3.7,2.2,4.9c1.5,1.3,3.4,1.9,5.8,1.9h0Z"/>
  <path class="st2" d="M295.1,170.2l-9.4-21.9h6.3l7.1,16.6,6.7-16.6h4.8l7.1,16.7,7.1-16.7h6.2l-9.4,21.9h-8.1l-5.2-12.6-4.9,12.6h-8.2Z"/>
  <path class="st2" d="M344.2,170.9c-4,0-7.2-1.1-9.6-3.2-2.4-2.1-3.6-4.9-3.6-8.4s1.2-6.3,3.6-8.4c2.4-2.1,5.6-3.2,9.6-3.2s7.1.9,9.6,2.7c2.4,1.8,3.7,4.2,3.7,7.2v3.6h-20.6c.4,1.8,1.3,3.1,2.8,3.8,1.5.8,3.7,1.2,6.7,1.2s1.7,0,2.5-.1c.8,0,1.4-.2,2-.3.5-.1,1.1-.3,1.7-.5.6-.2,1.1-.4,1.4-.5.3-.1.7-.3,1.3-.6.6-.3,1-.4,1.2-.5v5c-2.2.8-4.1,1.4-5.8,1.7-1.6.3-3.8.4-6.5.4h0ZM336.8,158.2l14.7-.3c0-1.9-.7-3.3-1.9-4.1-1.2-.8-3-1.2-5.4-1.2s-4.1.4-5.3,1.3c-1.2.9-1.9,2.4-2.1,4.4h0Z"/>
  <path class="st2" d="M361,170.2v-21.9h6.9l-.9,9h.4c.6-3.6,1.8-6.1,3.7-7.5,1.9-1.4,4.9-2.2,9.1-2.2v5.2c-4.6,0-7.9.8-10,2.4-2,1.6-3,4.1-3,7.7v7.3h-6.3Z"/>
  <path class="st2" d="M394,170.9c-4,0-7.2-1.1-9.6-3.2-2.4-2.1-3.6-4.9-3.6-8.4s1.2-6.3,3.6-8.4c2.4-2.1,5.6-3.2,9.6-3.2s7.1.9,9.6,2.7c2.4,1.8,3.7,4.2,3.7,7.2v3.6h-20.6c.4,1.8,1.3,3.1,2.8,3.8,1.5.8,3.7,1.2,6.7,1.2s1.7,0,2.5-.1c.8,0,1.4-.2,2-.3.5-.1,1.1-.3,1.7-.5.6-.2,1.1-.4,1.4-.5.3-.1.7-.3,1.3-.6.6-.3,1-.4,1.2-.5v5c-2.2.8-4.1,1.4-5.8,1.7-1.6.3-3.8.4-6.5.4h0ZM386.6,158.2l14.7-.3c0-1.9-.7-3.3-1.9-4.1-1.2-.8-3-1.2-5.4-1.2s-4.1.4-5.3,1.3c-1.2.9-1.9,2.4-2.1,4.4h0Z"/>
  <path class="st2" d="M421.5,170.9c-3.2,0-5.9-1.1-8.1-3.3-2.2-2.2-3.3-5-3.3-8.5s1.1-6.1,3.3-8.3c2.2-2.1,4.9-3.2,8.2-3.2s5.4.7,7.5,2c2.1,1.4,3.5,3.3,4,5.7h.2v-13.2h6.3v28h-6.4l1-7.1h-.5c-.5,2.5-1.9,4.4-4.2,5.8-2.3,1.4-4.9,2-7.9,2h0ZM424.1,166.1c2.2,0,4-.6,5.6-1.9,1.5-1.3,2.3-2.9,2.3-5s-.8-3.7-2.3-4.9c-1.5-1.2-3.4-1.9-5.6-1.9s-4.2.6-5.7,1.8c-1.5,1.2-2.2,2.9-2.2,4.9s.7,3.8,2.2,5c1.5,1.3,3.3,1.9,5.7,1.9Z"/>
  <path class="st2" d="M474.7,170.9c-3,0-5.6-.7-7.9-2-2.3-1.4-3.6-3.3-4.2-5.8h-.5l1,7.1h-6.4v-28h6.3v13.2h.2c.5-2.5,1.8-4.4,4-5.7,2.1-1.4,4.6-2,7.5-2s6,1.1,8.2,3.2c2.2,2.1,3.3,4.9,3.3,8.3s-1.1,6.3-3.3,8.5c-2.2,2.2-4.9,3.3-8.1,3.3h0ZM472.1,166.1c2.3,0,4.2-.6,5.7-1.9,1.5-1.3,2.2-2.9,2.2-5s-.7-3.7-2.2-4.9c-1.5-1.2-3.3-1.8-5.7-1.8s-4,.6-5.6,1.9c-1.5,1.2-2.3,2.9-2.3,4.9s.8,3.7,2.3,5c1.5,1.3,3.4,1.9,5.6,1.9Z"/>
  <path class="st2" d="M493.5,179l4.9-8.8-13.3-21.8h6.9l9.3,16.1,9-16.1h6.6l-16.9,30.6h-6.6Z"/>
  <path class="st2" d="M559.8,171.3c-5.5,0-8.3-1.9-8.3-5.8s.6-2.7,1.7-3.7c1.1-1,2.9-1.8,5.3-2.4,2.4-.6,4.3-.9,5.7-1.1,1.4-.2,3.5-.4,6.3-.6.4,0,.7,0,.9,0,0-1.7-.5-2.9-1.6-3.6-1-.7-2.6-1.1-4.9-1.1-3.3,0-6.9.8-10.6,2.4v-5c4.3-1.6,8.5-2.4,12.4-2.4,7.3,0,11,3.4,11,10.3v12.4h-6.2l1.2-7.9h-.4c-1.3,5.7-5.4,8.6-12.5,8.6h0ZM562.4,166.9c2.4,0,4.5-.5,6.3-1.6,1.8-1.1,2.7-2.6,2.7-4.5-.4,0-1.1,0-2.3.2-1.2,0-2.1.2-2.6.2-.6,0-1.4.2-2.4.3-1,.1-1.8.3-2.4.4-.5.2-1.1.4-1.8.6-.6.2-1.1.5-1.4.9-.3.4-.4.7-.4,1.2,0,.7.4,1.3,1.1,1.7.8.4,1.8.6,3.1.6Z"/>
  <path class="st2" d="M581.8,170.6v-28.4h6.3v28.4h-6.3Z"/>
  <path class="st2" d="M593.1,170.6v-28.4h6.3v16.6l12-10.3h9l-9,7.2,9.4,14.8h-7.8l-6.4-10.9-7.3,5.8v5.2h-6.3Z"/>
  <path class="st2" d="M627.9,170.6l-9.5-22.1h6.3l7.1,16.7,6.8-16.7h4.9l7.2,16.8,7.2-16.8h6.3l-9.5,22.1h-8.2l-5.3-12.7-4.9,12.7h-8.2,0Z"/>
  <path class="st2" d="M671.5,171.3c-5.5,0-8.3-1.9-8.3-5.8s.6-2.7,1.7-3.7c1.1-1,2.9-1.8,5.3-2.4,2.4-.6,4.3-.9,5.7-1.1,1.4-.2,3.5-.4,6.3-.6.4,0,.7,0,.9,0,0-1.7-.5-2.9-1.6-3.6-1-.7-2.6-1.1-4.9-1.1-3.3,0-6.9.8-10.6,2.4v-5c4.3-1.6,8.5-2.4,12.4-2.4,7.3,0,11,3.4,11,10.3v12.4h-6.2l1.2-7.9h-.4c-1.3,5.7-5.4,8.6-12.5,8.6h0ZM674,166.9c2.4,0,4.5-.5,6.3-1.6,1.8-1.1,2.7-2.6,2.7-4.5-.4,0-1.1,0-2.3.2-1.2,0-2.1.2-2.6.2-.6,0-1.4.2-2.4.3-1,.1-1.8.3-2.4.4-.6.2-1.1.4-1.8.6-.6.2-1.1.5-1.4.9-.3.4-.4.7-.4,1.2,0,.7.4,1.3,1.1,1.7.8.4,1.8.6,3.1.6Z"/>
  <path class="st2" d="M693.5,170.6v-28.4h6.3v28.4h-6.3Z"/>
  <path class="st2" d="M704.7,170.6v-28.4h6.3v16.6l12-10.3h9l-9,7.2,9.4,14.8h-7.8l-6.4-10.9-7.3,5.8v5.2h-6.3Z"/>
  <path class="st2" d="M744.8,171.3c-4,0-7.3-1.1-9.7-3.2-2.4-2.1-3.7-5-3.7-8.5s1.2-6.4,3.7-8.5c2.5-2.1,5.7-3.2,9.7-3.2s7.2.9,9.6,2.8,3.7,4.3,3.8,7.3v3.6h-20.8c.4,1.8,1.3,3.1,2.8,3.9,1.5.8,3.8,1.2,6.8,1.2s1.7,0,2.5-.1c.8,0,1.5-.2,2-.3s1.1-.3,1.7-.5c.6-.2,1.1-.4,1.4-.5.3-.1.8-.3,1.4-.6.6-.3,1-.4,1.2-.5v5c-2.2.9-4.2,1.4-5.8,1.7s-3.9.4-6.6.4h0ZM737.3,158.4l14.9-.4c0-1.9-.7-3.3-1.9-4.2-1.2-.8-3-1.3-5.5-1.3s-4.2.5-5.4,1.3c-1.2.9-1.9,2.4-2.1,4.4h0Z"/>
  <path class="st2" d="M761.7,170.6v-22.1h7l-.9,9.1h.4c.6-3.6,1.8-6.2,3.8-7.6,1.9-1.5,5-2.2,9.2-2.2v5.3c-4.7,0-8,.8-10,2.4-2,1.6-3.1,4.2-3.1,7.7v7.4h-6.3Z"/>
  <path class="st2" d="M538.4,170.6v-23.1h-10.4v-5.3h27.2v5.3h-10.4v23.1h-6.3Z"/>
  <path class="st2" d="M795.4,142.2l-17.5,28.4h7.2l3.5-5.9h20.8l3.5,5.9h7.2l-17.5-28.4h-7.2ZM791.7,159.4l7.4-12.5,7.3,12.5h-14.7Z"/>
  <path class="st2" d="M828.4,142.2h-7.1v28.4h7.1v-28.4Z"/>
  <path class="st1" d="M182.1,39.8l-52.6,4.7c-9.1-5.3-18.1-7.3-27.6-7.3s-5.1.2-7.7.7l-55-20.1c-2.2-.8-3.8,2.1-1.9,3.5l33.7,25.9c-7.1,4.4-13.8,10.1-19.7,16.7-10,11.4-22.6,43-28.8,59.3-2.6,7-1.3,14.9,3.5,20.6,11.2,13.5,34.5,35.3,79.1,35.3s61.7-18.3,71.4-31.6c5.4-7.4,7-16.9,4.3-25.6-4.4-14.8-13.7-40.4-28.8-57.9-.5-.6-1.1-1.2-1.6-1.8l32.7-19.2c1.6-.8.8-3.2-1-3.1h0Z"/>
  <path class="st0" d="M127.2,134.8c-3.9,1.4-12.7,3.5-22.5-1.6-.5-.3-1,.4-.6.8,3.1,3.3,8.6,9.1,12,11.9.7.6,1.8.5,2.4-.2l9.3-10.2c.4-.2,0-.8-.6-.7Z"/>
  <path class="st0" d="M163.6,92.5c-5-10.7-12.4-20.7-23.7-21.9-2-.2-4.1.2-5.8,1.3l-12.3,7.2c-3.1,1.8-6.9,1.6-9.7-.6l-10.7-8.2c-3.6-2.8-7.7-4.8-12.1-5.8-18.3-4.3-30.7,5.3-40.2,23.1-9,17.1-4,41.7,18.1,47.4,23.3,6.2,38.8-19.5,45-28.1,1.2-1.7,3.6-1.7,4.8,0,9.6,12.9,22.4,26.7,36.3,23.9,18.2-3.7,16-26.3,10.4-38.4h0ZM96,106.1c-4.5,3-10.2,2.3-13.6-2.8-3.4-5.1-1.9-10.6,2.6-13.6,4.5-3,10.2-2.3,13.6,2.8,3.4,5.1,1.9,10.6-2.6,13.6ZM143.8,107c-4.5,3-10.2,2.3-13.6-2.8-3.4-5.1-1.9-10.6,2.6-13.6,4.5-3,10.2-2.3,13.6,2.8,3.4,5.1,1.9,10.6-2.6,13.6Z"/>
  <path class="st0" d="M116.7,113.5c-.9-1-2.6-1-3.5,0l-9.8,11.5c-.5.5-.4,1.4.2,1.8,2.3,1.6,7.8,5.2,13.2,5.2s9.5-1.9,11.7-3c.7-.4.9-1.3.4-1.9l-12.2-13.7h0Z"/>
  <path class="st1" d="M225.9,111.4V38.8h16.2v31.5h53.9v-31.5h16.2v72.6h-16.2v-27.5h-53.9v27.5h-16.2Z"/>
  <path class="st1" d="M358.3,113.2c-10.8,0-19.4-2.8-26-8.3-6.6-5.5-9.8-12.8-9.8-21.9s3.3-16.4,9.8-21.9c6.6-5.5,15.2-8.3,26-8.3s19.5,2.8,26.1,8.3c6.6,5.5,9.8,12.8,9.8,21.9s-3.3,16.4-9.8,21.9c-6.6,5.6-15.4,8.3-26.1,8.3ZM358.3,100.8c6.2,0,11.3-1.6,15.1-4.9,3.8-3.3,5.8-7.5,5.8-12.8s-1.9-9.7-5.8-12.9c-3.8-3.3-8.9-4.9-15.1-4.9s-11.1,1.7-15,5c-3.8,3.3-5.8,7.6-5.8,12.9s1.9,9.5,5.8,12.8c3.8,3.2,8.8,4.8,15,4.8h0Z"/>
  <path class="st1" d="M437.3,113.2c-10.8,0-19.4-2.8-26-8.3-6.6-5.5-9.8-12.8-9.8-21.9s3.3-16.4,9.8-21.9c6.6-5.5,15.2-8.3,26-8.3s19.5,2.8,26.1,8.3c6.6,5.5,9.8,12.8,9.8,21.9s-3.3,16.4-9.8,21.9c-6.6,5.6-15.3,8.3-26.1,8.3ZM437.3,100.8c6.2,0,11.3-1.6,15.1-4.9,3.8-3.3,5.8-7.5,5.8-12.8s-1.9-9.7-5.8-12.9c-3.8-3.3-8.9-4.9-15.1-4.9s-11.1,1.7-15,5c-3.8,3.3-5.8,7.6-5.8,12.9s1.9,9.5,5.8,12.8c3.9,3.2,8.9,4.8,15,4.8h0Z"/>
  <path class="st1" d="M503.3,112.5c-7.2,0-11.2-3.3-13.3-6.3-2.2-3-3.9-6.8-3.9-15.2v-24.7h-8.2v-11.6h10.6v-15.9h14v15.9h16.5v11.6h-16.5v21.2c0,6.4.9,8.6,2.5,10.2,2.7,2.7,11,.8,14.1-1v12.3c-3.6,2.4-9.8,3.6-15.7,3.6h0Z"/>
  <path class="st1" d="M560.4,113.2c-10.2,0-20.4-1.5-30.7-4.4v-12.9c8.6,3.3,17.9,4.9,28,4.9s12.5-.5,15.6-1.4c3.1-.9,4.7-2.5,4.7-4.9s-1.7-3.7-5.2-4.6c-3.5-.8-7.7-1.4-12.7-1.7-5-.2-10-.7-15-1.3-5-.7-9.3-2.2-12.7-4.7-3.5-2.5-5.2-6-5.2-10.6s3-10.9,9.1-14c6-3.2,14.3-4.8,24.6-4.8s17.7,1,28.6,3.2v12.4c-9.3-2-18.4-3-26.9-3-12.9,0-19.4,2-19.4,5.9s1.8,3.4,5.3,4.1c3.5.7,7.7,1.3,12.7,1.7,5,.3,9.9.8,14.9,1.5,5,.7,9.3,2.3,12.7,5,3.5,2.6,5.3,6.2,5.3,10.8s-3,11-9,14.1c-5.9,3.2-14.2,4.7-24.7,4.7h0Z"/>
  <path class="st1" d="M671.8,54.7v56.8h-17.8l2.3-23.4h-.9c-2.6,16.8-12.1,25.2-28.1,25.2-8.2-.2-14.3-2.8-18.1-8-3.8-5.1-5.8-13.8-5.8-25.9v-24.6h16.2v22.7c0,8.5,1.2,14.6,3.7,18.2,2.5,3.6,6.4,5.4,12,5.4s11.1-2.8,14.7-8.4c3.7-5.6,5.5-13,5.5-22.4v-15.6h16.4Z"/>
  <path class="st1" d="M693.8,49.2c-3.1,0-5.6-.7-7.4-2.3-1.8-1.6-2.6-3.8-2.6-6.8s.8-5.3,2.6-6.8c1.8-1.5,4.2-2.2,7.4-2.2s5.7.7,7.5,2.2c1.8,1.5,2.7,3.7,2.7,6.8,0,6.1-3.4,9.2-10.2,9.2ZM685.9,111.4v-56.7h16.2v56.8h-16.2Z"/>
  <path class="st1" d="M793.8,113.2c-10.4,0-18.7-2.8-25-8.3-6.3-5.5-9.4-12.8-9.4-21.9s3.1-16.4,9.4-21.9c6.3-5.5,14.6-8.3,25-8.3s18.5,2.3,24.8,7.1c6.3,4.8,9.5,10.9,9.7,18.7v9.3h-53.3c.9,4.6,3.3,8,7.3,10,4,2.1,9.7,3.1,17.4,3.1s14.6-1.6,19.5-3.4c.8-.3,6.1-2.6,6.6-2.8v12.9c-5.8,2.2-10.8,3.6-15,4.4-4.3.7-10,1.1-17,1.1ZM774.6,80.1l38.2-.9c-.2-5-1.9-8.6-4.9-10.8-3-2.2-7.7-3.3-14.1-3.3s-10.7,1.1-13.8,3.5c-3.1,2.4-4.9,6.3-5.5,11.5h0Z"/>
  <path class="st1" d="M857.3,69.1c1.1-.9,1.6-2.2,1.6-3.7s-.6-2.8-1.6-3.7c-1.1-.9-2.6-1.4-4.5-1.4h-6.1v15.1h2.5v-4.9h4.2l3.2,4.9h2.6l-3.5-5.3c.6-.2,1.1-.5,1.6-.8ZM852.5,68.4h-3.4v-6h3.4c1.2,0,2.2.3,2.8.7.7.6,1,1.2,1,2.2s-.4,1.7-1,2.2c-.7.5-1.6.7-2.8.7Z"/>
  <path class="st1" d="M864.4,62.5c-.7-1.6-1.6-3-2.8-4.2-1.2-1.2-2.6-2.2-4.3-2.8-1.6-.7-3.4-1-5.3-1s-3.7.4-5.3,1c-1.6.7-3.1,1.6-4.3,2.8-1.2,1.2-2.2,2.6-2.8,4.2-.7,1.6-1,3.4-1,5.2s.4,3.6,1,5.2c.7,1.6,1.6,3,2.8,4.2,1.2,1.2,2.6,2.2,4.3,2.8,1.6.7,3.4,1,5.3,1s3.7-.4,5.3-1c1.6-.7,3-1.6,4.3-2.8,1.2-1.2,2.2-2.6,2.8-4.3.7-1.6,1-3.4,1-5.2s-.3-3.6-1-5.1ZM862.8,72.3c-.6,1.4-1.4,2.6-2.5,3.7-1,1-2.3,1.9-3.8,2.5-1.4.6-2.9.9-4.6.9s-3.2-.3-4.6-.8c-1.4-.6-2.6-1.4-3.7-2.4-1-1-1.9-2.2-2.5-3.7-.6-1.4-.8-2.9-.8-4.6s.3-3.2.8-4.6c.6-1.4,1.4-2.6,2.5-3.7,1-1,2.3-1.9,3.7-2.5,1.4-.6,3-.8,4.6-.8s3.2.3,4.6.8c1.4.6,2.6,1.4,3.7,2.4,1,1,1.9,2.2,2.5,3.6.6,1.4.8,2.9.8,4.6,0,1.7-.2,3.2-.8,4.6Z"/>
  <path class="st1" d="M738.5,112.5c-7.2,0-11.2-3.3-13.3-6.3-2.2-3-3.9-6.8-3.9-15.2v-24.7h-8.2v-11.6h10.6v-15.9h14v15.9h16.5v11.6h-16.5v21.2c0,6.4.9,8.6,2.5,10.2,2.7,2.7,11,.8,14.1-1v12.3c-3.6,2.4-9.9,3.6-15.7,3.6h0Z"/>
</svg>